<?xml version="1.0" encoding="UTF-8"?>
<svg xmlns="http://www.w3.org/2000/svg" xmlns:xlink="http://www.w3.org/1999/xlink" width="40px" height="40px" viewBox="0 0 40 40" version="1.1">
<g id="surface1">
<path style="fill:none;stroke-width:2;stroke-linecap:round;stroke-linejoin:round;stroke:rgb(0%,0%,0%);stroke-opacity:1;stroke-miterlimit:4;" d="M 4.000781 9 L 19.999219 9 M 7.999219 9 L 7.999219 19.999219 M 6.199219 19.999219 L 17.800781 19.999219 C 18.921094 19.999219 19.48125 19.999219 19.907812 19.78125 C 20.285156 19.591406 20.589844 19.284375 20.782031 18.907031 C 21 18.480469 21 17.920312 21 16.8 L 21 7.2 C 21 6.079687 21 5.519531 20.782031 5.092969 C 20.589844 4.715625 20.285156 4.408594 19.907812 4.21875 C 19.48125 4.000781 18.921094 4.000781 17.800781 4.000781 L 6.199219 4.000781 C 5.078906 4.000781 4.51875 4.000781 4.092187 4.21875 C 3.714844 4.408594 3.410156 4.715625 3.217969 5.092969 C 3 5.519531 3 6.079687 3 7.2 L 3 16.8 C 3 17.920312 3 18.480469 3.217969 18.907031 C 3.410156 19.284375 3.714844 19.591406 4.092187 19.78125 C 4.51875 19.999219 5.078906 19.999219 6.199219 19.999219 Z M 6.199219 19.999219 " transform="matrix(1.666667,0,0,1.666667,0,0)"/>
</g>
</svg>
